<?xml version='1.0' encoding='UTF-8'?>
<!DOCTYPE svg PUBLIC "-//W3C//DTD SVG 1.0//EN" "http://www.w3.org/TR/2001/REC-SVG-20010904/DTD/svg10.dtd">
<svg viewBox="0 0 568 134" xmlns="http://www.w3.org/2000/svg" xmlns:inkspace="http://www.inkscape.org/namespaces/inkscape" xmlns:xlink="http://www.w3.org/1999/xlink">
  <defs id="defs_block">
    <filter height="1.504" id="filter_blur" inkspace:collect="always" width="1.1575" x="-0.07875" y="-0.252">
      <feGaussianBlur id="feGaussianBlur3780" inkspace:collect="always" stdDeviation="4.2" />
    </filter>
  </defs>
  <title>blockdiag</title>
  <desc>seqdiag {
    API; Source;
    edge_length = 300;
    span_height = 15;
    activation = none;
    default_note_color = white;

    API -&gt; Source [label = "cast (or call if deleting)", note = "confirm_resize"];
}</desc>
  <polygon fill="rgb(0,0,0)" points="447,84 547,84 555,92 555,99 447,99 447,84" stroke="rgb(0,0,0)" style="filter:url(#filter_blur);opacity:0.7;fill-opacity:1" />
  <rect fill="rgb(0,0,0)" height="40" stroke="rgb(0,0,0)" style="filter:url(#filter_blur);opacity:0.7;fill-opacity:1" width="128" x="67" y="21" />
  <rect fill="rgb(0,0,0)" height="40" stroke="rgb(0,0,0)" style="filter:url(#filter_blur);opacity:0.7;fill-opacity:1" width="128" x="367" y="21" />
  <path d="M 128 55 L 128 134" fill="none" stroke="rgb(0,0,0)" stroke-dasharray="8 4" />
  <path d="M 428 55 L 428 134" fill="none" stroke="rgb(0,0,0)" stroke-dasharray="8 4" />
  <rect fill="rgb(255,255,255)" height="40" stroke="rgb(0,0,0)" width="128" x="64" y="15" />
  <text fill="rgb(0,0,0)" font-family="sans-serif" font-size="11" font-style="normal" font-weight="normal" text-anchor="middle" textLength="18" x="128.0" y="41">API</text>
  <rect fill="rgb(255,255,255)" height="40" stroke="rgb(0,0,0)" width="128" x="364" y="15" />
  <text fill="rgb(0,0,0)" font-family="sans-serif" font-size="11" font-style="normal" font-weight="normal" text-anchor="middle" textLength="36" x="428.0" y="41">Source</text>
  <path d="M 136 85 L 420 85" fill="none" stroke="rgb(0,0,0)" />
  <polygon fill="rgb(0,0,0)" points="412,81 420,85 412,89" stroke="rgb(0,0,0)" />
  <polygon fill="rgb(255,255,255)" points="444,78 544,78 552,86 552,93 444,93 444,78" stroke="rgb(0,0,0)" />
  <path d="M 544 78 L 544 86" fill="none" stroke="rgb(0,0,0)" />
  <path d="M 544 86 L 552 86" fill="none" stroke="rgb(0,0,0)" />
  <text fill="rgb(0,0,0)" font-family="sans-serif" font-size="11" font-style="normal" font-weight="normal" text-anchor="middle" textLength="84" x="494.0" y="91">confirm_resize</text>
  <text fill="rgb(0,0,0)" font-family="sans-serif" font-size="11" font-style="normal" font-weight="normal" text-anchor="middle" textLength="156" x="222.0" y="81">cast (or call if deleting)</text>
</svg>
