<?xml version='1.0' encoding='UTF-8'?>
<!DOCTYPE svg PUBLIC "-//W3C//DTD SVG 1.0//EN" "http://www.w3.org/TR/2001/REC-SVG-20010904/DTD/svg10.dtd">
<svg viewBox="0 0 862 189" xmlns="http://www.w3.org/2000/svg" xmlns:inkspace="http://www.inkscape.org/namespaces/inkscape" xmlns:xlink="http://www.w3.org/1999/xlink">
  <defs id="defs_block">
    <filter height="1.504" id="filter_blur" inkspace:collect="always" width="1.1575" x="-0.07875" y="-0.252">
      <feGaussianBlur id="feGaussianBlur3780" inkspace:collect="always" stdDeviation="4.2" />
    </filter>
  </defs>
  <title>blockdiag</title>
  <desc>seqdiag {
    API; Source; Destination;
    edge_length = 300;
    span_height = 15;
    activation = none;
    default_note_color = white;

    API -&gt; Destination [label = "cast", note = "revert_resize"];
           Source &lt;- Destination [label = "cast", leftnote = "finish_revert_resize"];
}</desc>
  <polygon fill="rgb(0,0,0)" points="747,84 841,84 849,92 849,99 747,99 747,84" stroke="rgb(0,0,0)" style="filter:url(#filter_blur);opacity:0.7;fill-opacity:1" />
  <polygon fill="rgb(0,0,0)" points="271,124 407,124 415,132 415,139 271,139 271,124" stroke="rgb(0,0,0)" style="filter:url(#filter_blur);opacity:0.7;fill-opacity:1" />
  <rect fill="rgb(0,0,0)" height="40" stroke="rgb(0,0,0)" style="filter:url(#filter_blur);opacity:0.7;fill-opacity:1" width="128" x="67" y="21" />
  <rect fill="rgb(0,0,0)" height="40" stroke="rgb(0,0,0)" style="filter:url(#filter_blur);opacity:0.7;fill-opacity:1" width="128" x="367" y="21" />
  <rect fill="rgb(0,0,0)" height="40" stroke="rgb(0,0,0)" style="filter:url(#filter_blur);opacity:0.7;fill-opacity:1" width="128" x="667" y="21" />
  <path d="M 128 55 L 128 189" fill="none" stroke="rgb(0,0,0)" stroke-dasharray="8 4" />
  <path d="M 428 55 L 428 189" fill="none" stroke="rgb(0,0,0)" stroke-dasharray="8 4" />
  <path d="M 728 55 L 728 189" fill="none" stroke="rgb(0,0,0)" stroke-dasharray="8 4" />
  <rect fill="rgb(255,255,255)" height="40" stroke="rgb(0,0,0)" width="128" x="64" y="15" />
  <text fill="rgb(0,0,0)" font-family="sans-serif" font-size="11" font-style="normal" font-weight="normal" text-anchor="middle" textLength="18" x="128.0" y="41">API</text>
  <rect fill="rgb(255,255,255)" height="40" stroke="rgb(0,0,0)" width="128" x="364" y="15" />
  <text fill="rgb(0,0,0)" font-family="sans-serif" font-size="11" font-style="normal" font-weight="normal" text-anchor="middle" textLength="36" x="428.0" y="41">Source</text>
  <rect fill="rgb(255,255,255)" height="40" stroke="rgb(0,0,0)" width="128" x="664" y="15" />
  <text fill="rgb(0,0,0)" font-family="sans-serif" font-size="11" font-style="normal" font-weight="normal" text-anchor="middle" textLength="66" x="728.0" y="41">Destination</text>
  <path d="M 136 85 L 720 85" fill="none" stroke="rgb(0,0,0)" />
  <polygon fill="rgb(0,0,0)" points="712,81 720,85 712,89" stroke="rgb(0,0,0)" />
  <polygon fill="rgb(255,255,255)" points="744,78 838,78 846,86 846,93 744,93 744,78" stroke="rgb(0,0,0)" />
  <path d="M 838 78 L 838 86" fill="none" stroke="rgb(0,0,0)" />
  <path d="M 838 86 L 846 86" fill="none" stroke="rgb(0,0,0)" />
  <text fill="rgb(0,0,0)" font-family="sans-serif" font-size="11" font-style="normal" font-weight="normal" text-anchor="middle" textLength="78" x="791.0" y="91">revert_resize</text>
  <path d="M 436 125 L 720 125" fill="none" stroke="rgb(0,0,0)" />
  <polygon fill="rgb(0,0,0)" points="444,121 436,125 444,129" stroke="rgb(0,0,0)" />
  <polygon fill="rgb(255,255,255)" points="268,118 404,118 412,126 412,133 268,133 268,118" stroke="rgb(0,0,0)" />
  <path d="M 404 118 L 404 126" fill="none" stroke="rgb(0,0,0)" />
  <path d="M 404 126 L 412 126" fill="none" stroke="rgb(0,0,0)" />
  <text fill="rgb(0,0,0)" font-family="sans-serif" font-size="11" font-style="normal" font-weight="normal" text-anchor="middle" textLength="120" x="336.0" y="131">finish_revert_resize</text>
  <text fill="rgb(0,0,0)" font-family="sans-serif" font-size="11" font-style="normal" font-weight="normal" text-anchor="middle" textLength="24" x="156.0" y="81">cast</text>
  <text fill="rgb(0,0,0)" font-family="sans-serif" font-size="11" font-style="normal" font-weight="normal" text-anchor="middle" textLength="24" x="704.0" y="121">cast</text>
</svg>
